<svg xmlns="http://www.w3.org/2000/svg" width="512" height="512" viewBox="0 0 512 512">
  <defs>
    <style>
      .cls-1 {
        fill: #0aa;
        fill-rule: evenodd;
      }
    </style>
  </defs>
  <path id="Color_Fill_1" data-name="Color Fill 1" class="cls-1" d="M233,0C371.7-2.584,451.026,62.412,492,157c15.1,34.847,29.53,99.858,16,150-5.514,20.435-11.061,39.9-19,58-27.643,63.021-81.414,106.5-146,133-19.311,7.923-41.576,8.876-64,14H248c-36.354,0-65.675-8.948-91-20C82.616,459.537,36.233,407.824,10,327,2.13,302.751-5.927,249.4,2,217c3.977-16.254,5.976-33.315,12-48C42.011,100.721,87.108,49.151,154,20c15.77-6.873,33.442-11.287,51-16ZM215,367c1.294-47.972,7.375-93.148,18-133,4.218-15.821,12.279-53.167,5-72a25.086,25.086,0,0,0-8-1c-4.667,3.831-11.139,5.454-15,10-28.681,33.766-50.66,116.237-51,179-13.1-.941-36.16-13.58-36,7,4.665,5.735,7.109,12.578,13,17,20.494,15.384,48.011,24.207,76,32l33,5c14.414,3.2,39.417-1.25,50-4,49.48-12.86,85.335-30.318,84-94l-3-21c-5.221-15.613-17.724-30.184-30-39-4.737-3.4-11.36-5.535-15-10,33.014-8.412,53.348-63.943,31-100-32.187-51.93-131.47-50.791-183-18-12.063,7.676-36.783,24.1-35,41,19.205,3.774,31.8-9.18,45-15,23.272-10.262,67.505-17.968,95-6,13.012,5.664,21.287,15.956,25,31,4.608,18.67-4.109,49.7-18,50-7.659-5.079-37.884,1.2-42,4l-6,7c-2.385,28.385,28.58,24.529,53,23,4.721,7.1,11.056,14.055,14,23,2.509,7.622,2.28,16.957,4,25,8.5,39.77-24.843,58.924-52,65C247.465,377.371,229.7,368.977,215,367Z"/>
</svg>
